<svg width="18" height="19" viewBox="0 0 18 19" fill="none" xmlns="http://www.w3.org/2000/svg">
<path d="M16.5 0.5H1.5C1.10218 0.5 0.720644 0.658035 0.43934 0.93934C0.158035 1.22064 0 1.60218 0 2V17C0 17.3978 0.158035 17.7794 0.43934 18.0607C0.720644 18.342 1.10218 18.5 1.5 18.5H16.5C16.8978 18.5 17.2794 18.342 17.5607 18.0607C17.842 17.7794 18 17.3978 18 17V2C18 1.60218 17.842 1.22064 17.5607 0.93934C17.2794 0.658035 16.8978 0.5 16.5 0.5ZM1.5 2H16.5V9.25437L14.1853 6.93875C13.904 6.65766 13.5227 6.49976 13.125 6.49976C12.7273 6.49976 12.346 6.65766 12.0647 6.93875L2.00344 17H1.5V2ZM16.5 17H4.125L13.125 8L16.5 11.375V17ZM6 8.75C6.44501 8.75 6.88002 8.61804 7.25003 8.37081C7.62004 8.12357 7.90843 7.77217 8.07873 7.36104C8.24903 6.9499 8.29358 6.4975 8.20677 6.06105C8.11995 5.62459 7.90566 5.22368 7.59099 4.90901C7.27632 4.59434 6.87541 4.38005 6.43895 4.29323C6.0025 4.20642 5.5501 4.25097 5.13896 4.42127C4.72783 4.59157 4.37643 4.87996 4.12919 5.24997C3.88196 5.61998 3.75 6.05499 3.75 6.5C3.75 7.09674 3.98705 7.66903 4.40901 8.09099C4.83097 8.51295 5.40326 8.75 6 8.75ZM6 5.75C6.14834 5.75 6.29334 5.79399 6.41668 5.8764C6.54001 5.95881 6.63614 6.07594 6.69291 6.21299C6.74968 6.35003 6.76453 6.50083 6.73559 6.64632C6.70665 6.7918 6.63522 6.92544 6.53033 7.03033C6.42544 7.13522 6.2918 7.20665 6.14632 7.23559C6.00083 7.26453 5.85003 7.24968 5.71299 7.19291C5.57594 7.13614 5.45881 7.04001 5.3764 6.91668C5.29399 6.79334 5.25 6.64834 5.25 6.5C5.25 6.30109 5.32902 6.11032 5.46967 5.96967C5.61032 5.82902 5.80109 5.75 6 5.75Z" fill="#B0B0B0"/>
</svg>
